# xmcd
#
# Track frame offsets: 
#        150
#        11323
#        21451
#        34717
#        45470
#        57864
#        70169
#        80242
#        89210
#        99144
#        110907
#        122386
#        132061
#        142199
#        152861
#        161570
#        173402
#        182941
#        193575
#
# Disc length: 2732 seconds
#
# Revision: 0
# Processed by: cddbd v1.5.2PL0 Copyright (c) Steve Scherf et al.
# Submitted via: ExactAudioCopy v0.99pb4
#
DISCID=020aaa13
DTITLE=Carl Belew - Hits Plus Ones I've Written
DYEAR=1962
DGENRE=Country
TTITLE0=Hello Out There
TTITLE1=In The Middle Of A Memory
TTITLE2=Cyrstal Chandelier
TTITLE3=Boston Jail
TTITLE4=Walking Shadows, Talking Memory
TTITLE5=Girl Crazy
TTITLE6=Mary's Little Lamb
TTITLE7=Odd Man Out
TTITLE8=I Let Her Get Lonely
TTITLE9=Even The Bad Times Are Good
TTITLE10=Don't Squeeze My Sharmon
TTITLE11=You're Driving You Out Of My Mind
TTITLE12=How Long Is Forever This Time
TTITLE13=The Closest Thing To Me
TTITLE14=I Gotta Be Somewhere
TTITLE15=Silent Partner
TTITLE16=I Spent A Week There One Day
TTITLE17=Help Stamp Out Loneliness
TTITLE18=Am I That Easy To Forget?
EXTD=
EXTT0=
EXTT1=
EXTT2=
EXTT3=
EXTT4=
EXTT5=
EXTT6=
EXTT7=
EXTT8=
EXTT9=
EXTT10=
EXTT11=
EXTT12=
EXTT13=
EXTT14=
EXTT15=
EXTT16=
EXTT17=
EXTT18=
PLAYORDER=
